<svg width="72" height="72" viewBox="0 0 72 72" fill="none" xmlns="http://www.w3.org/2000/svg">
<circle cx="36" cy="36" r="36" fill="#B18F5D"/>
<circle cx="36" cy="36" r="35" stroke="url(#paint0_linear_2457_1476)" stroke-opacity="0.7" stroke-width="2"/>
<path d="M50.5249 29.7969C52.1895 33.275 52.5023 37.2475 51.4026 40.9433C50.303 44.6391 47.8693 47.7944 44.574 49.7967C41.2787 51.799 37.357 52.5053 33.5701 51.7787C29.7833 51.0521 26.4016 48.9443 24.0815 45.8645C21.7614 42.7847 20.6684 38.9526 21.0148 35.1123C21.3612 31.272 23.1222 27.6974 25.956 25.0825C28.7898 22.4675 32.4941 20.9989 36.3498 20.9616C40.2056 20.9243 43.9376 22.3211 46.8214 24.8807L50.4776 21.2245C50.6496 21.0555 50.8814 20.9612 51.1226 20.9624C51.3637 20.9635 51.5946 21.0599 51.765 21.2305C51.9354 21.4011 52.0315 21.6321 52.0324 21.8732C52.0332 22.1144 51.9387 22.3461 51.7695 22.5179L37.1445 37.1429C37.0598 37.2288 36.959 37.2972 36.8478 37.344C36.7365 37.3908 36.6171 37.4151 36.4965 37.4155C36.3758 37.4159 36.2563 37.3924 36.1447 37.3464C36.0332 37.3004 35.9319 37.2328 35.8466 37.1474C35.7613 37.062 35.6938 36.9606 35.6479 36.849C35.602 36.7374 35.5787 36.6178 35.5793 36.4972C35.5798 36.3765 35.6043 36.2572 35.6512 36.146C35.6981 36.0348 35.7666 35.9341 35.8526 35.8495L40.33 31.3706C39.1634 30.4983 37.7342 30.0501 36.2784 30.1002C34.8226 30.1503 33.4275 30.6956 32.3236 31.6459C31.2197 32.5963 30.4732 33.8949 30.2073 35.3271C29.9415 36.7593 30.1723 38.2393 30.8616 39.5225C31.5508 40.8058 32.6573 41.8154 33.9981 42.3846C35.339 42.9538 36.8339 43.0484 38.2358 42.6529C39.6377 42.2573 40.8627 41.3953 41.7083 40.2092C42.5539 39.0231 42.9694 37.5841 42.8863 36.1298C42.8726 35.8874 42.9557 35.6494 43.1174 35.4683C43.2791 35.2871 43.5062 35.1777 43.7486 35.1639C43.991 35.1502 44.229 35.2333 44.4101 35.395C44.5913 35.5567 44.7007 35.7838 44.7145 36.0262C44.8241 37.9074 44.2847 39.7692 43.1863 41.3003C42.0878 42.8315 40.4971 43.9391 38.6799 44.438C36.8628 44.9369 34.9295 44.7969 33.2032 44.0413C31.477 43.2857 30.0624 41.9604 29.1961 40.2869C28.3299 38.6135 28.0643 36.6933 28.444 34.8476C28.8236 33.0019 29.8254 31.3424 31.2818 30.1467C32.7383 28.951 34.561 28.2916 36.4454 28.2786C38.3297 28.2657 40.1614 28.9001 41.6341 30.0757L45.5249 26.1833C42.9685 23.9541 39.6759 22.7527 36.2846 22.8118C32.8933 22.8708 29.6445 24.186 27.1671 26.5027C24.6898 28.8195 23.1602 31.973 22.8744 35.3528C22.5886 38.7326 23.567 42.0982 25.6201 44.798C27.6732 47.4979 30.6551 49.3399 33.9883 49.9676C37.3216 50.5952 40.7691 49.9638 43.6636 48.1956C46.558 46.4273 48.6935 43.6481 49.6565 40.3958C50.6195 37.1436 50.3416 33.6497 48.8765 30.5906C48.8244 30.4823 48.7941 30.3649 48.7874 30.245C48.7806 30.125 48.7976 30.0049 48.8373 29.8916C48.877 29.7782 48.9386 29.6737 49.0186 29.5841C49.0987 29.4946 49.1956 29.4217 49.3038 29.3695C49.4121 29.3174 49.5295 29.2871 49.6494 29.2804C49.7694 29.2737 49.8895 29.2906 50.0028 29.3303C50.1162 29.37 50.2207 29.4316 50.3102 29.5117C50.3998 29.5917 50.4727 29.6886 50.5249 29.7969Z" fill="white"/>
<defs>
<linearGradient id="paint0_linear_2457_1476" x1="-6.38711" y1="-8.94188e-07" x2="76.6453" y2="90.0002" gradientUnits="userSpaceOnUse">
<stop stop-color="white"/>
<stop offset="0.46" stop-color="white" stop-opacity="0"/>
<stop offset="0.965" stop-color="white"/>
</linearGradient>
</defs>
</svg>
