<svg width="72" height="72" viewBox="0 0 72 72" fill="none" xmlns="http://www.w3.org/2000/svg">
<circle cx="36" cy="36" r="36" fill="#B18F5D"/>
<circle cx="36" cy="36" r="35" stroke="url(#paint0_linear_2457_1471)" stroke-opacity="0.7" stroke-width="2"/>
<path d="M20.9583 29.9627C21.1229 26.6377 21.6153 24.5636 23.091 23.0911C24.5635 21.6154 26.6377 21.123 29.9627 20.9583M51.0416 29.9627C50.8769 26.6377 50.3845 24.5636 48.9088 23.0911C47.4363 21.6154 45.3622 21.123 42.0372 20.9583M42.0372 51.0416C45.3622 50.877 47.4363 50.3846 48.9088 48.9089C50.3845 47.4364 50.8769 45.3622 51.0416 42.0372M29.9627 51.0416C26.6377 50.877 24.5635 50.3846 23.091 48.9089C21.6153 47.4364 21.1229 45.3622 20.9583 42.0372M48.0887 34.9201C48.4734 35.4015 48.6666 35.6437 48.6666 36C48.6666 36.3562 48.4734 36.5985 48.0887 37.0798C46.3581 39.2458 41.939 43.9166 35.9999 43.9166C30.0608 43.9166 25.6418 39.2458 23.9112 37.0798C23.5264 36.5985 23.3333 36.3562 23.3333 36C23.3333 35.6437 23.5264 35.4015 23.9112 34.9201C25.6418 32.7541 30.0608 28.0833 35.9999 28.0833C41.939 28.0833 46.3581 32.7541 48.0887 34.9201Z" stroke="white" stroke-width="1.5" stroke-linecap="round" stroke-linejoin="round"/>
<path d="M39.1666 36C39.1666 35.1601 38.833 34.3547 38.2391 33.7608C37.6452 33.1669 36.8398 32.8333 35.9999 32.8333C35.1601 32.8333 34.3546 33.1669 33.7607 33.7608C33.1669 34.3547 32.8333 35.1601 32.8333 36C32.8333 36.8398 33.1669 37.6453 33.7607 38.2392C34.3546 38.833 35.1601 39.1666 35.9999 39.1666C36.8398 39.1666 37.6452 38.833 38.2391 38.2392C38.833 37.6453 39.1666 36.8398 39.1666 36Z" stroke="white" stroke-width="1.5" stroke-linecap="round" stroke-linejoin="round"/>
<defs>
<linearGradient id="paint0_linear_2457_1471" x1="-6.38711" y1="-8.94188e-07" x2="76.6453" y2="90.0002" gradientUnits="userSpaceOnUse">
<stop stop-color="white"/>
<stop offset="0.46" stop-color="white" stop-opacity="0"/>
<stop offset="0.965" stop-color="white"/>
</linearGradient>
</defs>
</svg>
